<svg width="161" height="181" viewBox="0 0 161 181" fill="none" xmlns="http://www.w3.org/2000/svg">
<g clip-path="url(#clip0_1_830)">
<path d="M26.6 0C25.11 0 23.91 1.21 23.91 2.69C23.91 4.17 25.11 5.38 26.6 5.38C28.09 5.38 29.29 4.17 29.29 2.69C29.29 1.21 28.09 0 26.6 0Z" fill="white"/>
<path d="M70.51 0C69.03 0 67.82 1.21 67.82 2.69C67.82 4.17 69.03 5.38 70.51 5.38C71.99 5.38 73.21 4.17 73.21 2.69C73.21 1.21 72 0 70.51 0Z" fill="white"/>
<path d="M114.41 0C112.92 0 111.72 1.21 111.72 2.69C111.72 4.17 112.92 5.38 114.41 5.38C115.9 5.38 117.11 4.17 117.11 2.69C117.11 1.21 115.9 0 114.41 0Z" fill="white"/>
<path d="M158.32 5.39001C159.81 5.39001 161.01 4.18001 161.01 2.70001C161.01 1.22001 159.8 0.0100098 158.32 0.0100098C156.84 0.0100098 155.63 1.22001 155.63 2.70001C155.63 4.18001 156.84 5.39001 158.32 5.39001Z" fill="white"/>
<path d="M26.6 43.8999C25.11 43.8999 23.91 45.1099 23.91 46.5899C23.91 48.0699 25.11 49.2799 26.6 49.2799C28.09 49.2799 29.29 48.0699 29.29 46.5899C29.29 45.1099 28.09 43.8999 26.6 43.8999Z" fill="white"/>
<path d="M70.51 43.8999C69.03 43.8999 67.82 45.1099 67.82 46.5899C67.82 48.0699 69.03 49.2799 70.51 49.2799C71.99 49.2799 73.21 48.0699 73.21 46.5899C73.21 45.1099 72 43.8999 70.51 43.8999Z" fill="white"/>
<path d="M114.41 43.8999C112.92 43.8999 111.72 45.1099 111.72 46.5899C111.72 48.0699 112.92 49.2799 114.41 49.2799C115.9 49.2799 117.11 48.0699 117.11 46.5899C117.11 45.1099 115.9 43.8999 114.41 43.8999Z" fill="white"/>
<path d="M158.32 43.8999C156.83 43.8999 155.63 45.1099 155.63 46.5899C155.63 48.0699 156.84 49.2799 158.32 49.2799C159.8 49.2799 161.01 48.0699 161.01 46.5899C161.01 45.1099 159.8 43.8999 158.32 43.8999Z" fill="white"/>
<path d="M26.6 87.8101C25.11 87.8101 23.91 89.0101 23.91 90.5001C23.91 91.9901 25.11 93.1901 26.6 93.1901C28.09 93.1901 29.29 91.9901 29.29 90.5001C29.29 89.0101 28.09 87.8101 26.6 87.8101Z" fill="white"/>
<path d="M70.51 87.8101C69.03 87.8101 67.82 89.0101 67.82 90.5001C67.82 91.9901 69.03 93.1901 70.51 93.1901C71.99 93.1901 73.21 91.9901 73.21 90.5001C73.21 89.0101 72 87.8101 70.51 87.8101Z" fill="white"/>
<path d="M114.41 87.8101C112.92 87.8101 111.72 89.0101 111.72 90.5001C111.72 91.9901 112.92 93.1901 114.41 93.1901C115.9 93.1901 117.11 91.9901 117.11 90.5001C117.11 89.0101 115.9 87.8101 114.41 87.8101Z" fill="white"/>
<path d="M158.32 87.8101C156.83 87.8101 155.63 89.0101 155.63 90.5001C155.63 91.9901 156.84 93.1901 158.32 93.1901C159.8 93.1901 161.01 91.9901 161.01 90.5001C161.01 89.0101 159.8 87.8101 158.32 87.8101Z" fill="white"/>
<path d="M26.6 131.72C25.11 131.72 23.91 132.93 23.91 134.41C23.91 135.89 25.11 137.1 26.6 137.1C28.09 137.1 29.29 135.89 29.29 134.41C29.29 132.93 28.09 131.72 26.6 131.72Z" fill="white"/>
<path d="M70.51 131.72C69.03 131.72 67.82 132.93 67.82 134.41C67.82 135.89 69.03 137.1 70.51 137.1C71.99 137.1 73.21 135.89 73.21 134.41C73.21 132.93 72 131.72 70.51 131.72Z" fill="white"/>
<path d="M114.41 131.72C112.92 131.72 111.72 132.93 111.72 134.41C111.72 135.89 112.92 137.1 114.41 137.1C115.9 137.1 117.11 135.89 117.11 134.41C117.11 132.93 115.9 131.72 114.41 131.72Z" fill="white"/>
<path d="M158.32 131.72C156.83 131.72 155.63 132.93 155.63 134.41C155.63 135.89 156.84 137.1 158.32 137.1C159.8 137.1 161.01 135.89 161.01 134.41C161.01 132.93 159.8 131.72 158.32 131.72Z" fill="white"/>
<path d="M26.6 175.62C25.11 175.62 23.91 176.83 23.91 178.32C23.91 179.81 25.11 181.01 26.6 181.01C28.09 181.01 29.29 179.81 29.29 178.32C29.29 176.83 28.09 175.62 26.6 175.62Z" fill="white"/>
<path d="M70.51 175.62C69.03 175.62 67.82 176.83 67.82 178.32C67.82 179.81 69.03 181.01 70.51 181.01C71.99 181.01 73.21 179.81 73.21 178.32C73.21 176.83 72 175.62 70.51 175.62Z" fill="white"/>
<path d="M114.41 175.62C112.92 175.62 111.72 176.83 111.72 178.32C111.72 179.81 112.92 181.01 114.41 181.01C115.9 181.01 117.11 179.81 117.11 178.32C117.11 176.83 115.9 175.62 114.41 175.62Z" fill="white"/>
<path d="M158.32 175.62C156.83 175.62 155.63 176.83 155.63 178.32C155.63 179.81 156.84 181.01 158.32 181.01C159.8 181.01 161.01 179.81 161.01 178.32C161.01 176.83 159.8 175.62 158.32 175.62Z" fill="white"/>
</g>
<defs>
<clipPath id="clip0_1_830">
<rect width="181.01" height="181" fill="white" transform="translate(-20)"/>
</clipPath>
</defs>
</svg>
