<svg width="15" height="15" viewBox="0 0 15 15" fill="none" xmlns="http://www.w3.org/2000/svg">
<path d="M11.7462 0.144775H3.50454C1.71056 0.144775 0.251236 1.6041 0.251236 3.39808V11.6398C0.251236 13.4337 1.71056 14.8931 3.50454 14.8931H11.7462C13.5402 14.8931 14.9995 13.4337 14.9995 11.6398V3.39808C14.9995 1.6041 13.5402 0.144775 11.7462 0.144775ZM7.62538 11.5855C5.38302 11.5855 3.55876 9.76128 3.55876 7.51892C3.55876 5.27656 5.38302 3.4523 7.62538 3.4523C9.86775 3.4523 11.692 5.27656 11.692 7.51892C11.692 9.76128 9.86775 11.5855 7.62538 11.5855ZM12.2884 3.66918C11.8392 3.66918 11.4751 3.30509 11.4751 2.85586C11.4751 2.40662 11.8392 2.04253 12.2884 2.04253C12.7377 2.04253 13.1018 2.40662 13.1018 2.85586C13.1018 3.30509 12.7377 3.66918 12.2884 3.66918Z" fill="url(#paint0_linear_1_1244)"/>
<defs>
<linearGradient id="paint0_linear_1_1244" x1="7.62538" y1="0.144775" x2="7.62538" y2="14.8931" gradientUnits="userSpaceOnUse">
<stop stop-color="white"/>
<stop offset="1" stop-color="#DAC8FF"/>
</linearGradient>
</defs>
</svg>
